<?xml version="1.0" encoding="UTF-8" standalone="no"?>
<svg version="1.1" xmlns="http://www.w3.org/2000/svg" xmlns:xlink="http://www.w3.org/1999/xlink" width="63.36" height="63.36">
	<path id="dp_path001" transform="matrix(1,0,0,1,-434.263,95.2627)" fill="white" fill-rule="evenodd" stroke="none" stroke-width="0" d="M 477.913,-31.9413 C 492.133,-31.9413 494.573,-31.9707 494.911,-32.1387 C 495.137,-32.252 495.348,-32.348 495.591,-32.4173 C 496.108,-32.5667 496.571,-33.156 496.893,-33.576 C 497.709,-34.64 497.609,-35.9867 497.631,-37.256 L 497.631,-64.7707 C 497.631,-89.3747 497.608,-92.3507 497.417,-92.8893 L 497.205,-93.4907 C 496.537,-94.2733 495.801,-94.8213 494.877,-95.2627 L 465.923,-95.2627 C 446.973,-95.2627 436.832,-95.216 436.575,-95.1267 C 436.325,-95.0413 436.165,-94.976 435.977,-94.7933 C 435.864,-94.6853 435.563,-94.404 435.307,-94.168 C 434.899,-93.7933 434.705,-93.3387 434.535,-92.8307 L 434.399,-92.696 C 434.309,-92.608 434.263,-82.7347 434.263,-63.62 C 434.263,-44.4733 434.309,-34.6507 434.399,-34.5947 C 434.568,-34.488 434.567,-34.3653 434.609,-34.1693 C 434.667,-33.9107 434.729,-33.7773 434.9,-33.5747 C 435.273,-33.1307 435.713,-32.6813 436.275,-32.4893 C 436.523,-32.404 436.887,-32.2467 437.084,-32.1387 C 437.392,-31.9707 439.651,-31.9413 452.783,-31.9413 C 456.564,-31.9413 464.315,-31.9413 468.123,-31.9413 L 468.123,-56.536 C 465.357,-56.536 462.592,-56.536 459.828,-56.536 C 459.828,-59.7067 459.828,-62.8773 459.828,-66.048 C 462.569,-66.048 465.311,-66.048 468.053,-66.048 C 468.157,-67.704 468.123,-69.3627 468.123,-71.0213 C 468.123,-73.152 468.184,-75.292 468.259,-75.7773 C 468.401,-76.7093 468.585,-77.6787 468.999,-78.5347 C 469.196,-78.9427 469.372,-79.356 469.551,-79.772 C 469.796,-80.3493 470.119,-80.8147 470.556,-81.252 C 470.595,-81.4747 470.769,-81.6413 470.909,-81.8107 C 471.521,-82.5493 472.249,-83.1427 473.017,-83.712 C 473.904,-84.328 474.929,-84.756 475.956,-85.072 C 478.743,-85.928 481.713,-85.752 484.591,-85.6147 C 485.639,-85.6147 486.669,-85.4733 487.704,-85.3093 C 487.704,-82.4667 487.704,-79.6253 487.704,-76.7827 L 484.569,-76.7827 C 482.176,-76.7827 481.273,-76.7347 480.755,-76.5787 L 480.075,-76.3747 C 479.893,-76.3253 479.712,-76.2747 479.531,-76.2253 C 479.349,-76.044 479.168,-75.8627 478.987,-75.6813 C 478.611,-75.3053 478.373,-74.852 478.164,-74.3707 C 477.784,-71.6213 477.913,-68.8187 477.913,-66.048 C 481.04,-66.048 484.168,-66.048 487.296,-66.048 C 487.296,-65.772 487.296,-65.4947 487.296,-65.2187 C 486.913,-62.3467 486.531,-59.4733 486.148,-56.6013 C 483.412,-56.4307 480.653,-56.536 477.913,-56.536 C 477.913,-48.3387 477.913,-40.14 477.913,-31.9413 Z "/>
</svg>