<?xml version="1.0" encoding="UTF-8" standalone="no"?>
<svg version="1.1" xmlns="http://www.w3.org/2000/svg" xmlns:xlink="http://www.w3.org/1999/xlink" width="62.72" height="62.72">
	<g id="dp_dp001" transform="matrix(1,0,0,1,-354.273,94.168)">
		<path id="dp_path002" fill="white" fill-rule="evenodd" stroke="none" stroke-width="0" d="M 399.108,-93.928 C 397.839,-94.1213 395.107,-94.168 385.023,-94.168 L 372.513,-94.168 C 372.384,-94.1133 372.255,-94.0573 372.125,-94.0027 C 370.231,-94.0027 368.249,-93.564 366.443,-93.008 C 365.213,-92.6307 364.072,-92.0307 362.896,-91.5173 C 362.472,-91.3 362.157,-91.1107 361.817,-90.772 C 361.533,-90.4867 361.256,-90.2653 360.923,-90.0427 C 360.793,-90.0027 360.664,-89.9627 360.535,-89.9227 C 359.879,-89.2333 359.223,-88.544 358.567,-87.8547 L 358.236,-87.44 C 357.332,-86.312 356.596,-85.1427 356.023,-83.812 C 354.524,-80.3333 354.292,-76.356 354.281,-72.628 C 354.269,-68.3427 354.273,-64.056 354.273,-59.7693 C 354.273,-51.8533 354.323,-49.5853 354.521,-48.2547 C 354.651,-47.396 354.781,-46.54 354.936,-45.6867 C 355.312,-43.6253 356.148,-41.6693 357.1,-39.8133 C 357.335,-39.3573 357.708,-39.04 358.069,-38.6787 C 358.109,-38.4467 358.275,-38.2627 358.419,-38.0813 C 359.347,-36.9093 360.485,-35.9387 361.652,-35.016 C 362.624,-34.248 363.769,-33.8307 364.903,-33.3427 C 367.175,-32.1093 369.977,-31.8013 372.513,-31.628 C 373.252,-31.5773 379.267,-31.5373 385.879,-31.5373 C 395.605,-31.5373 398.264,-31.584 399.807,-31.7853 L 401.713,-32.0333 C 402.889,-32.2693 404.039,-32.5467 405.196,-32.8627 C 405.929,-33.228 406.648,-33.568 407.416,-33.856 C 408.033,-34.088 408.612,-34.3653 409.175,-34.7027 C 409.44,-34.9667 409.704,-35.232 409.969,-35.496 C 410.304,-35.528 410.4,-35.5947 410.649,-35.8453 C 411.264,-36.4587 411.877,-37.072 412.491,-37.684 L 412.823,-38.0987 L 413.155,-38.5133 C 414.385,-39.9973 415.249,-41.8307 415.827,-43.6547 C 416.265,-45.0427 416.344,-46.5173 416.471,-47.9573 C 417.173,-53.0533 416.951,-58.2347 416.951,-63.3667 C 416.951,-74.44 416.927,-75.4573 416.619,-77.5333 C 416.369,-79.216 416.003,-80.8533 415.616,-82.504 C 415.52,-82.9147 415.296,-83.4733 415.119,-83.7467 C 414.928,-84.04 414.656,-84.584 414.455,-85.072 C 414.191,-85.716 413.804,-86.212 413.32,-86.6947 C 413.117,-87.0813 412.915,-87.4427 412.64,-87.7893 C 411.704,-88.9707 410.555,-90.0267 409.307,-90.872 C 408.537,-91.464 407.732,-91.872 406.819,-92.1973 C 404.44,-93.4987 401.729,-93.5293 399.108,-93.928 Z M 393.553,-88.2867 L 392.891,-88.3693 C 386.208,-88.3693 379.527,-88.3693 372.844,-88.3693 C 372.509,-88.2253 372.271,-88.204 371.896,-88.204 C 370.387,-88.204 368.768,-87.8213 367.355,-87.292 C 365.877,-86.7387 364.589,-85.9187 363.476,-84.8067 C 362.943,-84.2747 362.516,-83.6707 362.067,-83.0667 C 361.393,-82.1027 361.028,-80.8827 360.693,-79.768 C 360.213,-76.7027 360.311,-73.5533 360.243,-70.4573 C 360.243,-69.496 360.243,-68.536 360.243,-67.5747 L 360.243,-67.5747 C 360.243,-52.828 360.315,-48.2133 360.408,-47.5093 C 360.616,-45.9547 360.969,-44.404 361.752,-43.0347 C 362.064,-42.4893 362.436,-42.104 362.879,-41.6613 L 362.949,-41.444 C 363.116,-40.9373 363.828,-40.5267 364.239,-40.2187 C 364.564,-39.9747 364.891,-39.732 365.217,-39.4907 C 367.895,-37.6293 371.292,-37.6533 374.42,-37.584 C 379.289,-37.4773 384.157,-37.5013 389.028,-37.5013 C 395.44,-37.5013 400.331,-37.5693 400.967,-37.668 C 402.279,-37.8693 403.513,-38.236 404.697,-38.8267 C 404.968,-38.9373 405.239,-39.048 405.509,-39.1587 C 406.572,-39.7027 407.341,-40.6573 408.18,-41.496 C 408.345,-41.716 408.512,-41.9373 408.677,-42.1587 C 409.099,-42.704 409.545,-43.2933 409.739,-43.964 C 409.793,-44.156 409.953,-44.5253 410.093,-44.7853 C 410.625,-45.7707 410.736,-46.98 410.844,-48.0707 C 410.92,-48.8293 410.981,-55.6373 410.981,-63.2013 C 410.981,-71.4853 410.916,-77.4147 410.816,-78.1133 C 410.619,-79.496 410.223,-80.7613 409.692,-82.04 C 409.571,-82.8893 408.92,-83.4693 408.345,-84.044 L 408.277,-84.2547 C 408.177,-84.5627 407.92,-84.7227 407.68,-84.9347 C 406.384,-86.0827 404.983,-86.9573 403.305,-87.4747 C 401.052,-88.168 398.715,-88.1453 396.373,-88.204 C 395.929,-88.204 395.513,-88.232 395.072,-88.2947 C 394.721,-88.3453 394.387,-88.3453 394.327,-88.2947 C 394.267,-88.244 393.919,-88.2413 393.553,-88.2867 Z "/>
		<path id="dp_path003" fill="white" fill-rule="evenodd" stroke="none" stroke-width="0" d="M 387.501,-78.78 C 386.312,-78.9187 385.149,-78.924 383.953,-78.924 C 383.703,-78.8173 383.531,-78.7587 383.255,-78.7587 C 381.76,-78.7587 380.237,-77.972 378.852,-77.472 C 377.791,-77.3187 376.905,-76.52 376.177,-75.7933 C 375.945,-75.7533 375.763,-75.5893 375.58,-75.4453 C 374.217,-74.3667 373.023,-73.0133 372.032,-71.584 C 371.447,-70.74 370.955,-69.8067 370.689,-68.8173 C 369.796,-66.8507 369.528,-64.564 369.528,-62.4213 C 369.528,-60.22 370.083,-58.0013 370.947,-55.976 C 371.099,-55.6173 371.24,-55.3627 371.336,-55.272 C 371.609,-55.0133 371.724,-54.56 371.867,-54.2187 C 372.132,-53.9547 372.396,-53.6893 372.661,-53.4253 L 372.743,-53.188 C 372.788,-53.0573 372.871,-52.9 372.927,-52.8387 C 373.883,-51.7907 374.923,-50.8187 376.012,-49.912 C 376.784,-49.3173 377.613,-48.88 378.483,-48.4453 C 379.783,-47.796 381.155,-47.3533 382.583,-47.0747 C 385.039,-46.5947 387.797,-46.708 390.189,-47.4427 C 391.196,-47.752 392.121,-48.2133 393.091,-48.612 C 393.735,-48.876 394.231,-49.2627 394.715,-49.7453 C 396.601,-50.7347 398.04,-52.4853 399.209,-54.236 C 400.349,-55.876 401.021,-57.88 401.401,-59.8253 C 401.881,-62.28 401.769,-65.036 401.033,-67.4267 C 400.619,-68.772 399.961,-70.0253 399.375,-71.3027 C 399.215,-71.5653 399.056,-71.8293 398.896,-72.092 C 398.663,-72.348 398.439,-72.6133 398.213,-72.8773 C 397.312,-73.9333 396.316,-74.912 395.229,-75.776 C 394.173,-76.6053 392.957,-77.0933 391.729,-77.616 C 391.412,-77.7867 391.095,-77.9587 390.777,-78.1293 C 389.695,-78.3987 388.613,-78.652 387.501,-78.78 Z M 388.636,-72.752 C 387.969,-72.9573 387.348,-73.084 386.655,-73.1667 C 386.081,-73.2347 385.525,-73.2533 385.419,-73.208 C 385.148,-73.092 384.875,-73.1253 384.581,-73.1253 C 383.013,-73.1253 381.525,-72.404 380.123,-71.7827 C 379.859,-71.5173 379.593,-71.2533 379.328,-70.988 C 379.212,-70.9773 379.096,-70.9653 378.98,-70.9547 L 378.308,-70.208 C 377.808,-69.6533 377.352,-69.0773 376.897,-68.4867 C 376.659,-68.1747 376.54,-67.8613 376.4,-67.4933 C 376.2,-66.964 375.945,-66.4707 375.663,-65.984 C 375.431,-64.94 375.332,-63.908 375.332,-62.8347 C 375.332,-61.544 375.463,-60.3853 375.912,-59.1907 C 376.227,-58.3493 376.621,-57.3253 377.237,-56.6493 C 377.983,-55.8333 378.776,-55.048 379.66,-54.3853 C 380.043,-54.092 380.347,-53.88 380.807,-53.7267 C 381.088,-53.6333 381.524,-53.4453 381.775,-53.3093 C 383.417,-52.4173 385.463,-52.58 387.288,-52.58 C 388.568,-52.9 389.74,-53.3067 390.919,-53.9053 C 391.723,-54.3173 392.272,-54.9267 392.908,-55.5627 C 393.715,-56.368 394.395,-57.168 394.888,-58.2027 C 395.429,-59.3347 395.892,-60.768 395.892,-62.0333 C 395.892,-62.612 395.892,-63.192 395.892,-63.772 C 395.892,-64.7373 395.676,-65.6227 395.237,-66.4973 C 395.06,-66.8533 394.869,-67.3373 394.815,-67.5747 C 394.697,-68.0827 394.273,-68.448 393.92,-68.8 C 393.821,-68.9893 393.725,-69.1747 393.644,-69.372 C 393.495,-69.728 393.169,-69.948 392.888,-70.2093 C 391.621,-71.3867 390.317,-72.2333 388.636,-72.752 Z "/>
		<path id="dp_path004" fill="white" fill-rule="evenodd" stroke="none" stroke-width="0" d="M 403.903,-82.9453 C 403.611,-83.0707 402.883,-83.188 402.285,-83.204 C 401.688,-83.22 401.045,-83.1547 400.859,-83.0587 C 400.612,-82.932 400.373,-82.7973 400.136,-82.656 C 399.667,-82.376 399.423,-81.9747 399.093,-81.544 C 398.389,-80.6227 398.373,-79.1587 398.805,-78.1133 C 399.201,-77.156 400.229,-76.2107 401.231,-75.9173 C 402.732,-75.4787 404.34,-76.056 405.273,-77.272 C 406.66,-79.076 406.041,-82.0173 403.903,-82.9453 Z "/>
	</g>
</svg>