<?xml version="1.0" encoding="UTF-8" standalone="no"?>
<svg version="1.1" xmlns="http://www.w3.org/2000/svg" xmlns:xlink="http://www.w3.org/1999/xlink" width="65.28" height="65.28">
	<path id="dp_path001" transform="matrix(1,0,0,1,-78.6533,96.2107)" fill="white" fill-rule="evenodd" stroke="none" stroke-width="0" d="M 138.729,-96.116 C 138.283,-96.168 125.813,-96.2107 110.96,-96.2107 L 84.0027,-96.2107 C 83.8413,-96.1413 83.7307,-96.104 83.552,-96.104 C 82.8893,-96.104 82.2147,-95.6427 81.6387,-95.3547 C 81.04,-95.056 80.6053,-94.6333 80.14,-94.168 C 79.6933,-93.6533 79.4307,-93.0853 79.1773,-92.4573 C 78.932,-92.0013 78.808,-91.5427 78.748,-91.0227 C 78.696,-90.576 78.6533,-78.1373 78.6533,-63.3227 C 78.6533,-45.86 78.6907,-36.2267 78.76,-35.8453 C 78.82,-35.5187 78.8747,-35.2427 79.0227,-34.9467 C 79.168,-34.656 79.304,-34.3613 79.4387,-34.0667 C 79.58,-33.7587 79.72,-33.4733 79.948,-33.2253 C 80.1987,-32.976 80.448,-32.7267 80.6973,-32.4773 C 81.2133,-32.0307 81.78,-31.7693 82.4093,-31.5147 C 82.8653,-31.2707 83.3253,-31.1453 83.8453,-31.0853 C 84.292,-31.0333 96.74,-30.9907 111.565,-30.9907 C 129.041,-30.9907 138.681,-31.0293 139.064,-31.0987 C 139.391,-31.1573 139.667,-31.212 139.963,-31.36 C 140.248,-31.5027 140.533,-31.6453 140.819,-31.788 C 141.108,-31.932 141.371,-32.0653 141.62,-32.2693 C 141.911,-32.5053 142.169,-32.7693 142.435,-33.0333 C 142.881,-33.5493 143.143,-34.116 143.397,-34.744 C 143.641,-35.2 143.767,-35.66 143.827,-36.1787 C 143.879,-36.6253 143.921,-49.0653 143.921,-63.88 C 143.921,-81.3427 143.884,-90.9747 143.813,-91.3573 C 143.755,-91.684 143.7,-91.9587 143.552,-92.2547 C 143.407,-92.5453 143.271,-92.84 143.135,-93.136 C 142.995,-93.4427 142.853,-93.728 142.625,-93.976 C 142.376,-94.2253 142.127,-94.476 141.877,-94.7253 C 141.361,-95.172 140.793,-95.4333 140.165,-95.6867 C 139.709,-95.932 139.249,-96.056 138.729,-96.116 Z M 127.112,-72.5347 C 126.759,-72.6187 125.895,-72.7133 125.191,-72.7427 C 124.488,-72.772 123.856,-72.772 123.788,-72.7427 C 123.556,-72.6427 123.283,-72.6893 123.033,-72.6893 C 122.141,-72.6893 121.253,-72.38 120.381,-72.2133 C 119.372,-72.02 118.401,-71.548 117.488,-71.08 C 117.292,-70.98 117.249,-70.9493 117.107,-70.8067 C 116.964,-70.664 116.919,-70.624 116.691,-70.444 C 115.86,-69.7867 115.192,-68.98 114.556,-68.1453 C 114.536,-68.1453 114.516,-68.1453 114.497,-68.1453 L 114.497,-69.4067 C 114.497,-70.1013 114.449,-70.8307 114.391,-71.0293 C 114.253,-71.4907 113.979,-71.7427 113.599,-72.0307 C 113.413,-72.172 113.115,-72.2227 112.368,-72.2387 C 110.988,-72.2707 109.608,-72.2613 108.227,-72.2613 C 106.259,-72.2613 104.969,-72.2187 104.803,-72.1493 C 104.584,-72.056 104.395,-71.9467 104.195,-71.8187 C 104.011,-71.5653 103.869,-71.3653 103.781,-71.064 C 103.732,-70.8933 103.691,-63.7293 103.691,-55.144 C 103.691,-43.28 103.721,-39.4573 103.819,-39.2187 C 104.004,-38.7627 104.44,-38.3707 104.92,-38.2507 C 105.132,-38.1987 107.04,-38.1547 109.159,-38.1547 C 111.476,-38.1547 113.117,-38.1973 113.277,-38.2613 C 113.523,-38.3587 113.736,-38.484 113.961,-38.62 C 114.155,-38.912 114.295,-39.1493 114.391,-39.492 C 114.457,-39.7333 114.497,-43.0747 114.497,-48.484 C 114.497,-55.7533 114.521,-57.1987 114.657,-57.7853 C 114.761,-58.232 114.869,-58.6773 114.984,-59.1213 C 115.076,-59.4747 115.244,-59.908 115.359,-60.084 C 115.512,-60.3213 115.611,-60.5627 115.685,-60.832 C 115.856,-61.0027 116.027,-61.1733 116.197,-61.344 C 116.236,-61.644 116.484,-61.7813 116.703,-61.9853 C 117.023,-62.2853 117.349,-62.5747 117.688,-62.8547 L 117.917,-62.912 C 118.163,-62.9747 118.384,-63.076 118.616,-63.1787 C 118.925,-63.316 119.455,-63.4107 120.157,-63.4547 C 121.071,-63.512 122.009,-63.4347 122.843,-63.0187 C 123.02,-62.9293 123.192,-62.86 123.389,-62.8413 C 123.781,-62.4493 124.173,-62.0573 124.565,-61.6653 C 124.669,-61.5267 124.772,-61.388 124.876,-61.2493 C 125.423,-60.4627 125.704,-59.3707 125.851,-58.4427 C 125.903,-58.1107 125.969,-56.4387 125.999,-54.7267 C 126.052,-51.6573 126.052,-48.5907 126.052,-45.5213 C 126.052,-40.508 126.079,-39.3747 126.203,-39.1333 C 126.421,-38.7027 126.803,-38.3707 127.289,-38.2493 C 127.497,-38.1973 129.451,-38.1547 131.628,-38.1547 C 133.896,-38.1547 135.737,-38.2 135.939,-38.26 C 136.393,-38.3933 136.78,-38.804 136.963,-39.2267 C 137.036,-39.3933 137.073,-42.608 137.073,-48.6587 L 137.073,-57.8387 C 136.956,-59.3027 136.801,-60.7613 136.645,-62.2227 C 136.533,-62.7787 136.416,-63.332 136.223,-63.868 C 136.108,-64.1853 135.937,-64.7867 135.843,-65.2053 C 135.748,-65.6227 135.58,-66.104 135.468,-66.2733 C 135.207,-66.6733 135.023,-67.1227 134.827,-67.5573 C 134.751,-67.7027 134.676,-67.8493 134.601,-67.996 C 134.431,-68.1667 134.259,-68.3373 134.088,-68.508 C 134.059,-68.6827 133.92,-68.8133 133.809,-68.9467 C 132.964,-69.968 131.907,-70.9693 130.653,-71.46 C 130.412,-71.5533 130.045,-71.724 129.84,-71.8387 C 129.012,-72.3 128.021,-72.3147 127.112,-72.5347 Z M 97.592,-72.1547 C 97.3947,-72.2173 95.6667,-72.2613 93.36,-72.2613 C 90.8413,-72.2613 89.3827,-72.2213 89.24,-72.1493 C 88.928,-71.9893 88.704,-71.8267 88.4787,-71.556 C 88.3147,-71.3587 88.236,-71.2147 88.1627,-70.968 C 88.1107,-70.7893 88.0693,-63.7707 88.0693,-55.144 C 88.0693,-43.396 88.1,-39.564 88.196,-39.3267 C 88.3907,-38.8493 88.8987,-38.3773 89.4027,-38.252 C 89.6173,-38.1987 91.4773,-38.1547 93.5373,-38.1547 C 95.748,-38.1547 97.4133,-38.1987 97.6027,-38.2613 C 98.2547,-38.4787 98.66,-38.936 98.7893,-39.624 C 98.836,-39.8813 98.876,-46.9467 98.876,-55.3267 C 98.876,-65.1627 98.8373,-70.6947 98.768,-70.936 C 98.6867,-71.2213 98.5627,-71.4733 98.4107,-71.7253 C 98.1507,-71.8973 97.892,-72.0573 97.592,-72.1547 Z M 95.4587,-88.7387 C 95.0013,-88.872 94.548,-88.9067 94.0733,-88.9533 C 93.5373,-89.0053 93.0413,-89.0227 92.9733,-88.9933 C 92.828,-88.932 92.6973,-88.94 92.54,-88.94 C 91.74,-88.94 91.0427,-88.5293 90.316,-88.2453 C 89.9333,-88.096 89.648,-87.8453 89.364,-87.5613 C 89.1653,-87.5267 89.02,-87.356 88.872,-87.2293 C 88.2613,-86.7093 87.5733,-85.9773 87.312,-85.196 C 87.2013,-84.8653 87.0373,-84.5613 86.872,-84.256 C 86.7387,-83.5853 86.6573,-82.9453 86.6147,-82.2613 C 86.556,-81.3267 86.6827,-80.4373 87.052,-79.5733 C 87.1733,-79.2933 87.296,-79.0147 87.4213,-78.7373 C 87.5347,-78.4827 87.6573,-78.2413 87.6933,-78.2027 C 87.7893,-78.0973 87.8747,-77.9853 87.9627,-77.8747 C 88.5987,-77.0707 89.4427,-76.2453 90.4227,-75.896 C 90.6053,-75.832 90.876,-75.708 91.0227,-75.624 C 91.652,-75.2587 92.5547,-75.2467 93.26,-75.1893 C 94.3347,-75.104 95.5413,-75.3533 96.508,-75.836 C 97.436,-76.3 98.316,-77 98.94,-77.832 C 99.5973,-78.708 100.001,-79.6613 100.267,-80.7187 C 100.425,-81.3533 100.373,-82.04 100.373,-82.6907 C 100.373,-83.7413 99.8813,-84.8107 99.4053,-85.7387 C 99.3053,-85.9333 99.2747,-85.976 99.132,-86.1187 C 98.9893,-86.26 98.9493,-86.3067 98.768,-86.5347 C 98.3907,-87.012 97.9107,-87.3773 97.444,-87.7627 C 96.9027,-88.212 96.128,-88.544 95.4587,-88.7387 Z "/>
</svg>