<?xml version="1.0" encoding="UTF-8" standalone="no"?>
<svg version="1.1" xmlns="http://www.w3.org/2000/svg" xmlns:xlink="http://www.w3.org/1999/xlink" width="65.28" height="65.28">
	<path id="dp_path001" transform="matrix(1,0,0,1,-73.6533,94.2107)" fill="#FFFFFF" fill-rule="evenodd" stroke="none" stroke-width="0" d="M 133.729,-94.116 C 133.283,-94.168 120.813,-94.2107 105.96,-94.2107 L 79.0027,-94.2107 C 78.8413,-94.1413 78.7307,-94.104 78.552,-94.104 C 77.8893,-94.104 77.2147,-93.6427 76.6387,-93.3547 C 76.04,-93.056 75.6053,-92.6333 75.14,-92.168 C 74.6933,-91.6533 74.4307,-91.0853 74.1773,-90.4573 C 73.932,-90.0013 73.808,-89.5427 73.748,-89.0227 C 73.696,-88.576 73.6533,-76.1373 73.6533,-61.3227 C 73.6533,-43.86 73.6907,-34.2267 73.76,-33.8453 C 73.82,-33.5187 73.8747,-33.2427 74.0227,-32.9467 C 74.168,-32.656 74.304,-32.3613 74.4387,-32.0667 C 74.58,-31.7587 74.72,-31.4733 74.948,-31.2253 C 75.1987,-30.976 75.448,-30.7267 75.6973,-30.4773 C 76.2133,-30.0307 76.78,-29.7693 77.4093,-29.5147 C 77.8653,-29.2707 78.3253,-29.1453 78.8453,-29.0853 C 79.292,-29.0333 91.74,-28.9907 106.565,-28.9907 C 124.041,-28.9907 133.681,-29.0293 134.064,-29.0987 C 134.391,-29.1573 134.667,-29.212 134.963,-29.36 C 135.248,-29.5027 135.533,-29.6453 135.819,-29.788 C 136.108,-29.932 136.371,-30.0653 136.62,-30.2693 C 136.911,-30.5053 137.169,-30.7693 137.435,-31.0333 C 137.881,-31.5493 138.143,-32.116 138.397,-32.744 C 138.641,-33.2 138.767,-33.66 138.827,-34.1787 C 138.879,-34.6253 138.921,-47.0653 138.921,-61.88 C 138.921,-79.3427 138.884,-88.9747 138.813,-89.3573 C 138.755,-89.684 138.7,-89.9587 138.552,-90.2547 C 138.407,-90.5453 138.271,-90.84 138.135,-91.136 C 137.995,-91.4427 137.853,-91.728 137.625,-91.976 C 137.376,-92.2253 137.127,-92.476 136.877,-92.7253 C 136.361,-93.172 135.793,-93.4333 135.165,-93.6867 C 134.709,-93.932 134.249,-94.056 133.729,-94.116 Z M 122.112,-70.5347 C 121.759,-70.6187 120.895,-70.7133 120.191,-70.7427 C 119.488,-70.772 118.856,-70.772 118.788,-70.7427 C 118.556,-70.6427 118.283,-70.6893 118.033,-70.6893 C 117.141,-70.6893 116.253,-70.38 115.381,-70.2133 C 114.372,-70.02 113.401,-69.548 112.488,-69.08 C 112.292,-68.98 112.249,-68.9493 112.107,-68.8067 C 111.964,-68.664 111.919,-68.624 111.691,-68.444 C 110.86,-67.7867 110.192,-66.98 109.556,-66.1453 C 109.536,-66.1453 109.516,-66.1453 109.497,-66.1453 L 109.497,-67.4067 C 109.497,-68.1013 109.449,-68.8307 109.391,-69.0293 C 109.253,-69.4907 108.979,-69.7427 108.599,-70.0307 C 108.413,-70.172 108.115,-70.2227 107.368,-70.2387 C 105.988,-70.2707 104.608,-70.2613 103.227,-70.2613 C 101.259,-70.2613 99.9693,-70.2187 99.8027,-70.1493 C 99.584,-70.056 99.3947,-69.9467 99.1947,-69.8187 C 99.0107,-69.5653 98.8693,-69.3653 98.7813,-69.064 C 98.732,-68.8933 98.6907,-61.7293 98.6907,-53.144 C 98.6907,-41.28 98.7213,-37.4573 98.8187,-37.2187 C 99.004,-36.7627 99.44,-36.3707 99.92,-36.2507 C 100.132,-36.1987 102.04,-36.1547 104.159,-36.1547 C 106.476,-36.1547 108.117,-36.1973 108.277,-36.2613 C 108.523,-36.3587 108.736,-36.484 108.961,-36.62 C 109.155,-36.912 109.295,-37.1493 109.391,-37.492 C 109.457,-37.7333 109.497,-41.0747 109.497,-46.484 C 109.497,-53.7533 109.521,-55.1987 109.657,-55.7853 C 109.761,-56.232 109.869,-56.6773 109.984,-57.1213 C 110.076,-57.4747 110.244,-57.908 110.359,-58.084 C 110.512,-58.3213 110.611,-58.5627 110.685,-58.832 C 110.856,-59.0027 111.027,-59.1733 111.197,-59.344 C 111.236,-59.644 111.484,-59.7813 111.703,-59.9853 C 112.023,-60.2853 112.349,-60.5747 112.688,-60.8547 L 112.917,-60.912 C 113.163,-60.9747 113.384,-61.076 113.616,-61.1787 C 113.925,-61.316 114.455,-61.4107 115.157,-61.4547 C 116.071,-61.512 117.009,-61.4347 117.843,-61.0187 C 118.02,-60.9293 118.192,-60.86 118.389,-60.8413 C 118.781,-60.4493 119.173,-60.0573 119.565,-59.6653 C 119.669,-59.5267 119.772,-59.388 119.876,-59.2493 C 120.423,-58.4627 120.704,-57.3707 120.851,-56.4427 C 120.903,-56.1107 120.969,-54.4387 120.999,-52.7267 C 121.052,-49.6573 121.052,-46.5907 121.052,-43.5213 C 121.052,-38.508 121.079,-37.3747 121.203,-37.1333 C 121.421,-36.7027 121.803,-36.3707 122.289,-36.2493 C 122.497,-36.1973 124.451,-36.1547 126.628,-36.1547 C 128.896,-36.1547 130.737,-36.2 130.939,-36.26 C 131.393,-36.3933 131.78,-36.804 131.963,-37.2267 C 132.036,-37.3933 132.073,-40.608 132.073,-46.6587 L 132.073,-55.8387 C 131.956,-57.3027 131.801,-58.7613 131.645,-60.2227 C 131.533,-60.7787 131.416,-61.332 131.223,-61.868 C 131.108,-62.1853 130.937,-62.7867 130.843,-63.2053 C 130.748,-63.6227 130.58,-64.104 130.468,-64.2733 C 130.207,-64.6733 130.023,-65.1227 129.827,-65.5573 C 129.751,-65.7027 129.676,-65.8493 129.601,-65.996 C 129.431,-66.1667 129.259,-66.3373 129.088,-66.508 C 129.059,-66.6827 128.92,-66.8133 128.809,-66.9467 C 127.964,-67.968 126.907,-68.9693 125.653,-69.46 C 125.412,-69.5533 125.045,-69.724 124.84,-69.8387 C 124.012,-70.3 123.021,-70.3147 122.112,-70.5347 Z M 92.592,-70.1547 C 92.3947,-70.2173 90.6667,-70.2613 88.36,-70.2613 C 85.8413,-70.2613 84.3827,-70.2213 84.24,-70.1493 C 83.928,-69.9893 83.704,-69.8267 83.4787,-69.556 C 83.3147,-69.3587 83.236,-69.2147 83.1627,-68.968 C 83.1107,-68.7893 83.0693,-61.7707 83.0693,-53.144 C 83.0693,-41.396 83.1,-37.564 83.196,-37.3267 C 83.3907,-36.8493 83.8987,-36.3773 84.4027,-36.252 C 84.6173,-36.1987 86.4773,-36.1547 88.5373,-36.1547 C 90.748,-36.1547 92.4133,-36.1987 92.6027,-36.2613 C 93.2547,-36.4787 93.66,-36.936 93.7893,-37.624 C 93.836,-37.8813 93.876,-44.9467 93.876,-53.3267 C 93.876,-63.1627 93.8373,-68.6947 93.768,-68.936 C 93.6867,-69.2213 93.5627,-69.4733 93.4107,-69.7253 C 93.1507,-69.8973 92.892,-70.0573 92.592,-70.1547 Z M 90.4587,-86.7387 C 90.0013,-86.872 89.548,-86.9067 89.0733,-86.9533 C 88.5373,-87.0053 88.0413,-87.0227 87.9733,-86.9933 C 87.828,-86.932 87.6973,-86.94 87.54,-86.94 C 86.74,-86.94 86.0427,-86.5293 85.316,-86.2453 C 84.9333,-86.096 84.648,-85.8453 84.364,-85.5613 C 84.1653,-85.5267 84.02,-85.356 83.872,-85.2293 C 83.2613,-84.7093 82.5733,-83.9773 82.312,-83.196 C 82.2013,-82.8653 82.0373,-82.5613 81.872,-82.256 C 81.7387,-81.5853 81.6573,-80.9453 81.6147,-80.2613 C 81.556,-79.3267 81.6827,-78.4373 82.052,-77.5733 C 82.1733,-77.2933 82.296,-77.0147 82.4213,-76.7373 C 82.5347,-76.4827 82.6573,-76.2413 82.6933,-76.2027 C 82.7893,-76.0973 82.8747,-75.9853 82.9627,-75.8747 C 83.5987,-75.0707 84.4427,-74.2453 85.4227,-73.896 C 85.6053,-73.832 85.876,-73.708 86.0227,-73.624 C 86.652,-73.2587 87.5547,-73.2467 88.26,-73.1893 C 89.3347,-73.104 90.5413,-73.3533 91.508,-73.836 C 92.436,-74.3 93.316,-75 93.94,-75.832 C 94.5973,-76.708 95.0013,-77.6613 95.2667,-78.7187 C 95.4253,-79.3533 95.3733,-80.04 95.3733,-80.6907 C 95.3733,-81.7413 94.8813,-82.8107 94.4053,-83.7387 C 94.3053,-83.9333 94.2747,-83.976 94.132,-84.1187 C 93.9893,-84.26 93.9493,-84.3067 93.768,-84.5347 C 93.3907,-85.012 92.9107,-85.3773 92.444,-85.7627 C 91.9027,-86.212 91.128,-86.544 90.4587,-86.7387 Z "/>
</svg>