<?xml version="1.0" encoding="UTF-8" standalone="no"?>
<svg version="1.1" xmlns="http://www.w3.org/2000/svg" xmlns:xlink="http://www.w3.org/1999/xlink" width="85.12" height="62.72">
	<path id="dp_path001" transform="matrix(1,0,0,1,-165.672,94.168)" fill="white" fill-rule="evenodd" stroke="none" stroke-width="0" d="M 246.977,-93.9093 C 246.456,-94.0627 230.513,-94.168 208.023,-94.168 C 180.485,-94.168 169.772,-94.0813 169.307,-93.8547 C 168.621,-93.5213 168.164,-93.0573 167.616,-92.524 C 165.885,-90.8387 165.991,-88.3053 165.889,-86.0533 C 165.496,-77.3373 165.749,-68.5813 165.749,-59.8587 C 165.749,-45.3067 165.852,-36.4093 166.029,-35.792 C 166.524,-34.0587 167.839,-32.2733 169.656,-31.7427 C 170.177,-31.5893 186.071,-31.4827 208.485,-31.4827 C 235.855,-31.4827 246.647,-31.5707 247.203,-31.796 C 248.488,-32.32 249.827,-33.7187 250.373,-34.98 C 250.651,-35.6173 250.791,-37.1707 250.829,-40.004 C 250.948,-48.832 250.884,-57.664 250.884,-66.4933 C 250.884,-80.5787 250.78,-89.244 250.604,-89.86 C 250.109,-91.592 248.795,-93.3773 246.977,-93.9093 Z M 245.759,-89.7227 C 245.423,-89.8627 228.988,-89.9707 208.116,-89.9707 C 185.643,-89.9707 170.92,-89.868 170.687,-89.7093 C 170.38,-89.5 170.439,-89.3307 170.981,-88.856 C 172.844,-87.2253 174.769,-85.6773 176.671,-84.0933 C 177.472,-83.4493 178.268,-82.8027 179.052,-82.1347 C 180.067,-81.2693 181.107,-80.4373 182.147,-79.6013 C 183.035,-78.888 183.896,-78.1453 184.763,-77.4067 C 187.512,-75.1987 190.204,-72.9187 192.913,-70.6613 C 193.716,-70.0173 194.511,-69.3693 195.295,-68.7027 C 195.817,-68.2573 196.511,-67.6907 196.835,-67.4427 C 197.693,-66.7893 198.505,-66.0733 199.325,-65.3733 C 200.091,-64.756 200.853,-64.1387 201.611,-63.5107 C 202.429,-62.8307 203.277,-62.1933 204.123,-61.5453 C 206.339,-59.8453 209.095,-59.8413 211.567,-60.8813 C 212.464,-61.2587 213.012,-61.94 213.777,-62.5453 C 215.287,-63.7387 216.793,-64.936 218.259,-66.184 C 219.273,-67.0493 220.313,-67.8813 221.353,-68.7173 C 222.241,-69.4307 223.103,-70.1733 223.971,-70.912 C 226.152,-72.664 228.291,-74.468 230.44,-76.2587 C 231.243,-76.9027 232.039,-77.5493 232.821,-78.2173 C 233.836,-79.0827 234.876,-79.9147 235.916,-80.7507 C 236.804,-81.464 237.665,-82.2067 238.533,-82.9453 C 239.577,-83.7853 240.612,-84.6347 241.643,-85.4933 C 243.248,-86.7827 244.809,-88.1173 246.357,-89.4747 Z M 203.76,-56.6693 C 203.155,-56.948 202.613,-57.1267 202.141,-56.6547 C 200.488,-55.0027 198.42,-53.7293 196.555,-52.332 C 195.248,-51.352 193.941,-50.372 192.633,-49.3933 C 191.485,-48.6147 190.413,-47.736 189.303,-46.904 C 188.531,-46.3733 187.797,-45.8053 187.061,-45.224 C 184.459,-43.4613 181.988,-41.484 179.472,-39.5987 C 178.707,-39.08 177.985,-38.5227 177.26,-37.948 C 176.217,-37.232 175.216,-36.4707 174.227,-35.6813 C 196.953,-35.6813 219.68,-35.6813 242.407,-35.6813 C 241.703,-36.2427 240.992,-36.7907 240.272,-37.3307 C 239.5,-37.8613 238.767,-38.428 238.031,-39.0093 C 235.428,-40.7733 232.956,-42.7493 230.44,-44.636 C 229.676,-45.1547 228.955,-45.712 228.229,-46.2853 C 227.073,-47.0813 225.969,-47.9333 224.869,-48.804 C 223.036,-50.0467 221.291,-51.4227 219.519,-52.7507 C 218.753,-53.2693 218.032,-53.828 217.308,-54.4013 C 216.327,-55.076 215.407,-55.8173 214.475,-56.5547 C 213.604,-57.244 212.599,-56.8453 211.691,-56.4467 C 209.945,-55.6813 207.599,-55.744 205.767,-56.1093 C 204.997,-56.2627 204.093,-56.5147 203.76,-56.6693 Z M 172.611,-81.8547 C 171.827,-82.5227 171.032,-83.1707 170.229,-83.8147 C 170.229,-68.6 170.229,-53.388 170.229,-38.1733 C 171.265,-38.8947 172.272,-39.652 173.281,-40.4093 C 173.817,-40.7787 174.34,-41.1533 174.851,-41.5573 C 175.213,-41.844 175.573,-42.1227 175.956,-42.3827 C 179.181,-44.568 182.235,-47.056 185.352,-49.3933 C 185.881,-49.7507 186.392,-50.116 186.893,-50.512 C 187.625,-51.092 188.364,-51.6627 189.133,-52.192 C 189.753,-52.6187 190.335,-53.0947 190.924,-53.5613 C 193.143,-55.064 195.251,-56.7413 197.395,-58.348 C 197.863,-58.6653 198.32,-58.9813 198.761,-59.3347 C 199.232,-59.7107 199.223,-59.7627 198.592,-60.3133 C 196.953,-61.7453 195.296,-63.156 193.6,-64.5187 C 192.712,-65.2333 191.849,-65.976 190.983,-66.7147 C 189.369,-68.0107 187.783,-69.3373 186.193,-70.6613 C 185.391,-71.3053 184.595,-71.9533 183.812,-72.62 C 183.029,-73.288 182.233,-73.9347 181.432,-74.5787 C 180.631,-75.2227 179.835,-75.8707 179.052,-76.5387 C 178.528,-76.984 177.835,-77.5507 177.511,-77.7973 C 176.652,-78.452 175.841,-79.1667 175.02,-79.8667 C 174.209,-80.5213 173.403,-81.18 172.611,-81.8547 Z M 246.404,-60.9947 L 246.404,-83.8147 C 246.311,-83.8147 246.217,-83.8147 246.124,-83.8147 C 243.968,-81.66 241.547,-79.644 239.123,-77.7973 C 238.264,-77.1427 237.452,-76.428 236.631,-75.728 C 235.916,-75.1533 235.201,-74.5787 234.487,-74.0053 C 233.599,-73.292 232.737,-72.548 231.871,-71.8093 C 230.257,-70.5133 228.671,-69.1867 227.08,-67.8627 C 225.953,-66.9573 224.848,-66.0307 223.748,-65.0933 C 221.813,-63.5387 219.911,-61.948 218.041,-60.3133 C 217.411,-59.7627 217.401,-59.7107 217.872,-59.3347 C 218.176,-59.0907 218.481,-58.8613 218.804,-58.6427 C 220.875,-57.24 222.837,-55.6507 224.84,-54.1507 C 225.605,-53.632 226.325,-53.0747 227.051,-52.5 C 228.207,-51.7053 229.311,-50.852 230.412,-49.9813 C 233.592,-47.828 236.608,-45.4 239.683,-43.096 C 240.009,-42.8507 240.339,-42.612 240.677,-42.3827 C 241.06,-42.1227 241.42,-41.844 241.783,-41.5573 C 242.151,-41.2667 242.517,-40.984 242.903,-40.7173 C 243.624,-40.2227 244.316,-39.6853 245.017,-39.164 C 245.475,-38.8253 245.937,-38.4987 246.404,-38.1733 Z "/>
</svg>