<?xml version="1.0" encoding="UTF-8" standalone="no"?>
<svg version="1.1" xmlns="http://www.w3.org/2000/svg" xmlns:xlink="http://www.w3.org/1999/xlink" width="72.32" height="58.88">
	<path id="dp_path001" transform="matrix(1,0,0,1,-269.447,94.168)" fill="white" fill-rule="evenodd" stroke="none" stroke-width="0" d="M 323.228,-93.88 C 322.657,-93.9853 321.059,-94.116 319.677,-94.168 C 318.296,-94.2213 317.073,-94.2213 316.963,-94.168 C 316.627,-94.0093 316.255,-93.96 315.893,-93.88 C 315.327,-93.7533 314.801,-93.6027 314.257,-93.3987 C 313.835,-93.24 313.392,-93.04 313.273,-92.9547 C 313.156,-92.8693 312.94,-92.7787 312.792,-92.7533 C 311.908,-92.596 311.237,-91.8027 310.64,-91.2067 C 310.488,-91.16 310.336,-91.1133 310.185,-91.0653 C 309.489,-90.3293 308.793,-89.5947 308.097,-88.8587 C 307.905,-88.6027 307.713,-88.3453 307.52,-88.0893 C 307.335,-87.84 307.149,-87.5893 306.963,-87.34 C 306.751,-87.036 306.553,-86.7347 306.463,-86.368 C 306.409,-86.1507 306.192,-85.648 305.98,-85.2507 C 304.991,-83.3973 304.859,-81.2907 304.653,-79.2413 C 304.653,-78.1627 304.856,-77.1493 305.047,-76.0867 C 304.66,-76.272 304.2,-76.184 303.777,-76.184 C 302.187,-76.184 300.608,-76.4493 299.051,-76.76 C 296.427,-77.284 293.909,-78.1387 291.351,-78.896 C 289.539,-80.0813 287.512,-80.8893 285.587,-81.868 C 284.969,-82.1813 284.564,-82.6013 284.076,-83.088 L 283.873,-83.1947 C 283.464,-83.4093 283.089,-83.688 282.719,-83.964 C 282.463,-84.1533 282.228,-84.2533 281.919,-84.2827 C 281.172,-85.028 280.353,-85.672 279.553,-86.3573 C 277.727,-87.9213 276.071,-89.7053 274.467,-91.4947 C 274.293,-91.4947 274.212,-91.3573 274.097,-91.2347 C 273.652,-90.7587 273.504,-90.0413 273.276,-89.436 C 272.785,-87.508 272.315,-85.472 272.315,-83.4733 C 272.315,-82.2733 272.593,-80.9973 272.892,-79.8387 C 273.091,-79.0613 273.445,-78.4413 273.835,-77.7427 C 273.927,-77.556 273.984,-77.404 274.02,-77.1973 C 274.175,-76.316 274.972,-75.6427 275.567,-75.0493 C 275.615,-74.896 275.663,-74.7427 275.711,-74.5893 C 276.496,-73.8453 277.283,-73.1013 278.069,-72.356 C 278.135,-72.0107 278.509,-71.924 278.807,-71.7587 C 277.104,-71.7587 275.377,-72.1413 273.855,-72.904 C 273.441,-73.1093 272.927,-73.3213 272.709,-73.3747 C 272.344,-73.4653 272.315,-73.3853 272.315,-72.3173 C 272.315,-70.8827 272.627,-69.4347 273.252,-68.152 C 273.467,-67.7133 273.693,-67.1293 273.757,-66.8547 C 273.936,-66.088 274.371,-65.472 274.913,-64.9307 C 275.244,-64.6 275.501,-64.2787 275.759,-63.8933 L 275.779,-63.7773 C 275.841,-63.4133 276.461,-62.9987 276.721,-62.7387 C 276.856,-62.604 276.992,-62.4693 277.127,-62.3347 C 278.971,-60.492 281.633,-59.4933 284.036,-58.68 C 282.644,-58.48 281.305,-58.2947 279.897,-58.2947 C 279.104,-58.2947 278.259,-58.348 278.021,-58.412 C 277.757,-58.484 277.588,-58.4867 277.588,-58.2133 C 277.757,-57.7467 277.927,-57.2813 278.096,-56.8147 C 278.279,-56.2307 278.565,-55.72 278.879,-55.1973 C 279.187,-54.8893 279.493,-54.5827 279.801,-54.2747 C 279.848,-54.0053 280.039,-53.7933 280.207,-53.5827 C 280.935,-52.6627 281.793,-51.8587 282.729,-51.1573 C 283.735,-50.3827 284.823,-49.8867 286.001,-49.4267 C 287.703,-48.5093 289.451,-48.3507 291.341,-48.1187 L 290.981,-47.8307 C 290.733,-47.632 290.473,-47.4627 290.196,-47.3107 C 289.945,-47.1253 289.696,-46.9387 289.447,-46.7533 C 288.355,-45.9987 287.168,-45.4333 285.981,-44.84 C 283.679,-43.6893 281.371,-42.8573 278.859,-42.34 C 277.023,-41.9613 275.124,-41.908 273.256,-41.752 C 272.487,-41.752 271.717,-41.752 270.947,-41.752 L 270.369,-41.848 C 270.032,-41.9053 269.743,-41.9173 269.447,-41.752 C 269.972,-41.5373 270.48,-41.308 270.957,-40.9933 C 272.392,-40.0453 274.121,-39.428 275.703,-38.7507 C 276.105,-38.5787 276.492,-38.3987 276.876,-38.188 C 278.123,-37.5027 279.644,-37.1853 280.996,-36.7507 C 281.811,-36.6387 282.616,-36.5133 283.403,-36.26 C 286.241,-35.348 289.412,-35.4053 292.353,-35.212 C 295.8,-35.212 299.319,-35.5547 302.652,-36.4627 C 303.451,-36.68 304.249,-36.8707 305.057,-37.0493 C 306.523,-37.3747 307.993,-37.792 309.273,-38.5787 C 310.672,-39.4387 312.217,-40.0853 313.7,-40.7907 C 314.021,-40.9827 314.341,-41.176 314.663,-41.368 L 315.057,-41.5707 C 315.687,-41.8933 316.207,-42.4493 316.76,-42.8867 C 317.873,-43.64 318.916,-44.5133 319.936,-45.3867 C 322.215,-47.3387 324.096,-49.6267 326,-51.9267 C 326.38,-52.4027 326.687,-52.896 326.96,-53.4413 C 327.3,-53.656 327.401,-53.78 327.56,-54.1693 C 327.895,-54.988 328.348,-55.664 328.907,-56.3507 C 329.556,-57.7747 330.204,-59.1987 330.852,-60.6227 C 331.165,-61.3533 331.481,-62.0787 331.819,-62.7973 C 332.421,-64.0787 332.791,-65.4107 333.141,-66.7787 C 333.715,-69.0613 333.995,-71.364 334.329,-73.688 C 334.604,-75.5987 334.623,-77.5053 334.681,-79.4333 C 334.753,-79.7813 334.997,-79.908 335.276,-80.1387 C 335.841,-80.608 336.407,-81.0787 336.972,-81.5493 C 337.305,-81.8827 337.64,-82.2173 337.975,-82.5507 C 339.185,-83.7613 340.389,-85.0187 341.385,-86.416 C 341.504,-86.5827 341.603,-86.7453 341.695,-86.928 C 341.785,-87.1107 341.703,-87.18 341.42,-87.1587 C 341.196,-87.1413 340.364,-86.9107 339.571,-86.6467 L 338.127,-86.1653 C 337.24,-85.7987 336.348,-85.5053 335.404,-85.308 C 334.679,-85.156 334.007,-85.0747 333.912,-85.128 L 333.74,-85.224 L 334.2,-85.5987 C 334.455,-85.804 334.757,-86.0213 334.875,-86.08 C 335.351,-86.3173 336.049,-86.8373 336.303,-87.32 C 336.467,-87.6293 336.772,-87.8733 337.012,-88.1187 C 338.42,-89.5627 339.295,-91.3293 340.093,-93.152 L 339.687,-93.036 C 339.464,-92.9707 339.171,-92.8373 339.036,-92.7387 C 338.901,-92.6387 338.512,-92.4613 338.171,-92.3427 C 337.124,-91.9813 336.109,-91.5213 335.143,-90.984 C 333.993,-90.3453 332.637,-90.152 331.364,-89.8333 C 330.616,-89.6467 330.531,-89.6707 329.92,-90.228 C 328.824,-91.2333 327.793,-92.0573 326.413,-92.6347 C 325.761,-92.908 325.013,-93.256 324.748,-93.4093 C 324.484,-93.5613 323.8,-93.7733 323.228,-93.88 Z "/>
</svg>